<svg width="31" height="24" viewBox="0 0 31 24" fill="none" xmlns="http://www.w3.org/2000/svg">
<g clip-path="url(#clip0_2007_2)">
<path d="M3.97636 23.2719H25.7391C28.3633 23.2719 29.7234 21.9117 29.7234 19.331V3.9506C29.7234 1.36193 28.3633 0.00354004 25.7391 0.00354004H3.97636C1.36191 0.00354004 0 1.35392 0 3.9506V19.331C0 21.9277 1.36191 23.2719 3.97636 23.2719ZM4.10507 21.1268C2.8328 21.1268 2.14686 20.4656 2.14686 19.149V4.12638C2.14686 2.81778 2.8328 2.14864 4.10507 2.14864H25.6166C26.8666 2.14864 27.5686 2.81778 27.5686 4.12638V19.149C27.5686 20.4656 26.8666 21.1268 25.6166 21.1268H4.10507Z" fill="black" fill-opacity="0.85"/>
<path d="M24.8792 19C25.5586 19 26 18.6284 26 18.0674L26 4.93261C26 4.37304 25.5586 4 24.8792 4L23.1208 4C22.4492 4 22 4.37304 22 4.93261L22 18.0674C22 18.6284 22.4492 19 23.1208 19L24.8792 19Z" fill="black" fill-opacity="0.85"/>
<path d="M5.99995 11.4967C5.99995 12.0737 6.46554 12.5333 7.04015 12.5333L13.7027 12.5333L15.9916 12.4601L14.6018 13.7542L12.9202 15.3405C12.7165 15.519 12.6053 15.7877 12.6053 16.046C12.6053 16.6023 13.0087 17 13.5677 17C13.8818 17 14.12 16.8708 14.3376 16.6485L18.6358 12.259C18.8996 11.9837 19 11.7758 19 11.4967C19 11.2223 18.8907 11.0078 18.6358 10.741L14.3376 6.34963C14.1219 6.12921 13.8818 6 13.5677 6C13.0067 6 12.6053 6.40626 12.6053 6.96261C12.6053 7.22082 12.7165 7.47614 12.9202 7.65952L14.6018 9.24206L15.9955 10.5436L13.7027 10.4667L7.04015 10.4667C6.46554 10.4667 5.99995 10.9263 5.99995 11.4967Z" fill="black" fill-opacity="0.85"/>
</g>
<defs>
<clipPath id="clip0_2007_2">
<rect width="30.0848" height="23.2719" fill="white"/>
</clipPath>
</defs>
</svg>
